<svg width="50" height="50" viewBox="0 0 50 50" fill="none" xmlns="http://www.w3.org/2000/svg">
<circle cx="25" cy="25" r="25" fill="black"/>
<path d="M31 22.75H29.5C29.4994 22.1534 29.2622 21.5815 28.8403 21.1597C28.4185 20.7378 27.8466 20.5006 27.25 20.5V19C28.2442 19.0012 29.1973 19.3967 29.9003 20.0997C30.6033 20.8027 30.9988 21.7558 31 22.75Z" fill="white"/>
<path d="M34.0003 22.75H32.5003C32.4987 21.3581 31.945 20.0237 30.9608 19.0394C29.9766 18.0552 28.6422 17.5016 27.2503 17.5V16C29.0399 16.002 30.7556 16.7138 32.021 17.9792C33.2865 19.2447 33.9983 20.9604 34.0003 22.75ZM28.25 29.1115L29.93 27.4315C30.1549 27.2066 30.4408 27.0526 30.7524 26.9886C31.0639 26.9246 31.3874 26.9534 31.6828 27.0715L33.7288 27.8905C34.0303 28.0112 34.2888 28.2194 34.4709 28.4884C34.653 28.7573 34.7503 29.0747 34.7503 29.3995V33.1203C34.7508 33.3414 34.7062 33.5603 34.6192 33.7636C34.5321 33.9669 34.4045 34.1504 34.2442 34.3026C34.0838 34.4549 33.8941 34.5729 33.6865 34.6493C33.479 34.7257 33.2581 34.7589 33.0373 34.747C18.6958 33.8545 15.7993 21.7075 15.2615 17.056C15.2355 16.8286 15.2579 16.5983 15.3272 16.3801C15.3966 16.162 15.5113 15.961 15.6639 15.7904C15.8165 15.6198 16.0035 15.4835 16.2126 15.3903C16.4217 15.2972 16.6481 15.2494 16.877 15.25H20.5318C20.8566 15.25 21.1739 15.3473 21.4429 15.5294C21.7119 15.7115 21.9201 15.9699 22.0408 16.2715L22.859 18.3175C22.9771 18.6128 23.0059 18.9363 22.9419 19.2479C22.8779 19.5594 22.7239 19.8454 22.499 20.0703L20.819 21.7503C20.819 21.7503 21.7505 28.2993 28.25 29.1115Z" fill="white"/>
</svg>
