<svg width="50" height="50" viewBox="0 0 50 50" fill="none" xmlns="http://www.w3.org/2000/svg">
<circle cx="25" cy="25" r="25" fill="black"/>
<path fill-rule="evenodd" clip-rule="evenodd" d="M31.483 32.7902V32.7882L31.501 32.7452L34.5 17.6252V17.5772C34.5 17.2002 34.36 16.8712 34.058 16.6742C33.793 16.5012 33.488 16.4892 33.274 16.5052C33.0748 16.5232 32.8782 16.5634 32.688 16.6252C32.6068 16.6513 32.5268 16.6807 32.448 16.7132L32.435 16.7182L15.715 23.2772L15.71 23.2792C15.6591 23.2965 15.6094 23.3169 15.561 23.3402C15.4421 23.3936 15.328 23.4572 15.22 23.5302C15.005 23.6782 14.596 24.0262 14.665 24.5782C14.722 25.0362 15.037 25.3262 15.25 25.4772C15.3757 25.5653 15.5109 25.6391 15.653 25.6972L15.685 25.7112L15.695 25.7142L15.702 25.7172L18.628 26.7022C18.618 26.8852 18.636 27.0722 18.685 27.2572L20.15 32.8162C20.23 33.1192 20.4029 33.3895 20.6445 33.5892C20.886 33.7889 21.1841 33.9079 21.4967 33.9296C21.8094 33.9512 22.121 33.8743 22.3877 33.7098C22.6545 33.5453 22.863 33.3013 22.984 33.0122L25.272 30.5662L29.201 33.5782L29.257 33.6022C29.614 33.7582 29.947 33.8072 30.252 33.7662C30.557 33.7242 30.799 33.5962 30.981 33.4512C31.1915 33.2805 31.3593 33.0631 31.471 32.8162L31.479 32.7992L31.482 32.7932L31.483 32.7902ZM20.135 26.8752C20.1187 26.8135 20.1226 26.7483 20.146 26.6889C20.1694 26.6296 20.211 26.5792 20.265 26.5452L30.186 20.2452C30.186 20.2452 30.77 19.8902 30.749 20.2452C30.749 20.2452 30.853 20.3072 30.54 20.5982C30.244 20.8752 23.469 27.4162 22.783 28.0782C22.7448 28.1152 22.7181 28.1624 22.706 28.2142L21.6 32.4342L20.135 26.8752Z" fill="white"/>
</svg>
