<svg width="50" height="50" viewBox="0 0 50 50" fill="none" xmlns="http://www.w3.org/2000/svg">
<circle cx="25" cy="25" r="25" fill="black"/>
<path d="M34.579 19.8548C34.719 19.3898 34.579 19.0488 33.917 19.0488H31.724C31.166 19.0488 30.911 19.3438 30.771 19.6678C30.771 19.6678 29.656 22.3868 28.076 24.1498C27.566 24.6628 27.333 24.8248 27.055 24.8248C26.916 24.8248 26.714 24.6628 26.714 24.1978V19.8548C26.714 19.2968 26.553 19.0488 26.088 19.0488H22.642C22.294 19.0488 22.084 19.3068 22.084 19.5528C22.084 20.0808 22.874 20.2028 22.955 21.6908V24.9188C22.955 25.6258 22.828 25.7548 22.548 25.7548C21.805 25.7548 19.997 23.0258 18.924 19.9018C18.715 19.2948 18.504 19.0498 17.944 19.0498H15.752C15.125 19.0498 15 19.3448 15 19.6688C15 20.2508 15.743 23.1308 18.461 26.9398C20.273 29.5408 22.824 30.9508 25.148 30.9508C26.541 30.9508 26.713 30.6378 26.713 30.0978V28.1318C26.713 27.5058 26.846 27.3798 27.287 27.3798C27.611 27.3798 28.169 27.5438 29.47 28.7968C30.956 30.2828 31.202 30.9498 32.037 30.9498H34.229C34.855 30.9498 35.168 30.6368 34.988 30.0188C34.791 29.4038 34.081 28.5088 33.139 27.4498C32.627 26.8458 31.862 26.1958 31.629 25.8708C31.304 25.4518 31.398 25.2668 31.629 24.8948C31.63 24.8958 34.301 21.1338 34.579 19.8548Z" fill="white"/>
</svg>
